<svg xmlns="http://www.w3.org/2000/svg" width="24" height="24" viewBox="0 0 24 24" fill="none">
  <path d="M5.5 6.75C5.5 5.50736 6.50736 4.5 7.75 4.5H14.25C15.4926 4.5 16.5 5.50736 16.5 6.75V7.25" stroke="currentColor" stroke-width="1.8" stroke-linecap="round"/>
  <path d="M5.5 8.5H13.25C14.4926 8.5 15.5 9.50736 15.5 10.75V15.25C15.5 16.4926 14.4926 17.5 13.25 17.5H10L6.75 20V17.5H5.5C4.25736 17.5 3.25 16.4926 3.25 15.25V10.75C3.25 9.50736 4.25736 8.5 5.5 8.5Z" stroke="currentColor" stroke-width="1.8" stroke-linejoin="round"/>
  <path d="M8 11.25L11.5 13L8 14.75V11.25Z" stroke="currentColor" stroke-width="1.6" stroke-linejoin="round"/>
  <path d="M18.75 4V7.5" stroke="currentColor" stroke-width="1.8" stroke-linecap="round"/>
  <path d="M17 5.75H20.5" stroke="currentColor" stroke-width="1.8" stroke-linecap="round"/>
  <path d="M19.25 10.5V12.5" stroke="currentColor" stroke-width="1.6" stroke-linecap="round"/>
  <path d="M18.25 11.5H20.25" stroke="currentColor" stroke-width="1.6" stroke-linecap="round"/>
</svg>